<svg xmlns="http://www.w3.org/2000/svg" viewBox="0 0 226.03 217.35"><defs><style>.cls-1{fill:#ededed;}.cls-2,.cls-7{fill:none;stroke:#262626;stroke-miterlimit:10;}.cls-2{stroke-width:1px;}.cls-3{fill:#005d1f;}.cls-4{fill:#262626;}.cls-5{fill:#bababa;}.cls-6{fill:#f5cc02;}.cls-7{stroke-width:1.25px;}.cls-8{fill:#14aa40;}</style></defs><title>img_calendar</title><g id="Layer_2" data-name="Layer 2"><g id="Layer_1-2" data-name="Layer 1"><polygon class="cls-1" points="142.23 8.15 0.5 8.29 0.71 216.85 224.97 216.56 224.78 28.86 142.23 8.15"/><polygon class="cls-2" points="224.97 216.85 0.71 216.85 0.5 8.29 224.76 8.06 224.97 216.85"/><polygon class="cls-3" points="147.04 9.36 1.23 9.5 1.27 51.91 225.53 51.68 225.49 9.28 147.04 9.36"/><rect class="cls-2" x="1.25" y="9.39" width="224.26" height="42.41" transform="translate(-0.03 0.11) rotate(-0.06)"/><path class="cls-4" d="M19.22,17.69a4.5,4.5,0,1,1-4.51-4.5,4.5,4.5,0,0,1,4.51,4.5"/><path class="cls-4" d="M14.72,20.31a2.62,2.62,0,0,1-2.63-2.62V2.79a2.62,2.62,0,0,1,5.25,0V17.69a2.62,2.62,0,0,1-2.62,2.63"/><path class="cls-4" d="M33.2,17.67a4.5,4.5,0,1,1-4.51-4.5,4.5,4.5,0,0,1,4.51,4.5"/><path class="cls-4" d="M28.71,20.3a2.62,2.62,0,0,1-2.63-2.62V2.77a2.62,2.62,0,1,1,5.25,0l0,14.91a2.62,2.62,0,0,1-2.62,2.63"/><path class="cls-4" d="M55.88,17.65a4.5,4.5,0,1,1-4.51-4.5,4.5,4.5,0,0,1,4.51,4.5"/><path class="cls-4" d="M51.38,20.28a2.62,2.62,0,0,1-2.63-2.62V2.75a2.62,2.62,0,1,1,5.25,0l0,14.91a2.62,2.62,0,0,1-2.62,2.63"/><path class="cls-4" d="M69.87,17.64a4.5,4.5,0,1,1-4.51-4.5,4.5,4.5,0,0,1,4.51,4.5"/><path class="cls-4" d="M65.37,20.26a2.62,2.62,0,0,1-2.63-2.62l0-14.91a2.62,2.62,0,0,1,5.25,0V17.64a2.62,2.62,0,0,1-2.62,2.63"/><path class="cls-4" d="M92.54,17.61A4.5,4.5,0,1,1,88,13.12a4.5,4.5,0,0,1,4.51,4.5"/><path class="cls-4" d="M88,20.24a2.62,2.62,0,0,1-2.63-2.62V2.71a2.62,2.62,0,0,1,5.25,0V17.62A2.62,2.62,0,0,1,88,20.24"/><path class="cls-4" d="M106.53,17.6A4.5,4.5,0,1,1,102,13.1a4.5,4.5,0,0,1,4.51,4.5"/><path class="cls-4" d="M102,20.23a2.62,2.62,0,0,1-2.63-2.62V2.7a2.62,2.62,0,1,1,5.25,0l0,14.91A2.62,2.62,0,0,1,102,20.23"/><path class="cls-4" d="M129.21,17.58a4.5,4.5,0,1,1-4.51-4.5,4.5,4.5,0,0,1,4.51,4.5"/><path class="cls-4" d="M124.71,20.2a2.62,2.62,0,0,1-2.63-2.62V2.68a2.62,2.62,0,1,1,5.25,0l0,14.91a2.62,2.62,0,0,1-2.62,2.63"/><path class="cls-4" d="M143.19,17.56a4.5,4.5,0,1,1-4.51-4.5,4.5,4.5,0,0,1,4.51,4.5"/><path class="cls-4" d="M138.69,20.19a2.62,2.62,0,0,1-2.63-2.62V2.66a2.62,2.62,0,0,1,5.25,0V17.56a2.62,2.62,0,0,1-2.62,2.63"/><path class="cls-4" d="M165.87,17.54a4.5,4.5,0,1,1-4.51-4.5,4.5,4.5,0,0,1,4.51,4.5"/><path class="cls-4" d="M161.37,20.17a2.62,2.62,0,0,1-2.63-2.62V2.64a2.62,2.62,0,0,1,5.25,0V17.54a2.62,2.62,0,0,1-2.62,2.63"/><path class="cls-4" d="M179.85,17.53a4.5,4.5,0,1,1-4.51-4.5,4.5,4.5,0,0,1,4.51,4.5"/><path class="cls-4" d="M175.36,20.15a2.62,2.62,0,0,1-2.63-2.62V2.63a2.62,2.62,0,1,1,5.25,0l0,14.91a2.62,2.62,0,0,1-2.62,2.63"/><path class="cls-4" d="M202.53,17.5A4.5,4.5,0,1,1,198,13a4.5,4.5,0,0,1,4.51,4.5"/><rect class="cls-5" x="133.17" y="180.58" width="16.1" height="16.1" transform="translate(-0.19 0.14) rotate(-0.06)"/><rect class="cls-5" x="105.48" y="180.61" width="16.1" height="16.1" transform="translate(-0.19 0.12) rotate(-0.06)"/><rect class="cls-5" x="77.8" y="180.64" width="16.1" height="16.1" transform="translate(-0.19 0.09) rotate(-0.06)"/><rect class="cls-6" x="188.51" y="152.84" width="16.1" height="16.1" transform="translate(-0.16 0.2) rotate(-0.06)"/><rect class="cls-7" x="188.51" y="152.84" width="16.1" height="16.1" transform="translate(-0.16 0.2) rotate(-0.06)"/><rect class="cls-5" x="160.83" y="152.87" width="16.1" height="16.1" transform="translate(-0.16 0.17) rotate(-0.06)"/><rect class="cls-5" x="133.14" y="152.9" width="16.1" height="16.11" transform="translate(-0.16 0.14) rotate(-0.06)"/><rect class="cls-5" x="105.46" y="152.93" width="16.1" height="16.1" transform="translate(-0.16 0.12) rotate(-0.06)"/><rect class="cls-5" x="77.77" y="152.95" width="16.1" height="16.1" transform="translate(-0.16 0.09) rotate(-0.06)"/><rect class="cls-5" x="50.09" y="152.98" width="16.1" height="16.1" transform="translate(-0.16 0.06) rotate(-0.06)"/><rect class="cls-8" x="22.4" y="153.01" width="16.1" height="16.1" transform="translate(-0.16 0.03) rotate(-0.06)"/><rect class="cls-2" x="22.4" y="153.01" width="16.1" height="16.1" transform="translate(-0.16 0.03) rotate(-0.06)"/><rect class="cls-6" x="188.49" y="125.16" width="16.1" height="16.1" transform="translate(-0.14 0.2) rotate(-0.06)"/><rect class="cls-7" x="188.49" y="125.16" width="16.1" height="16.1" transform="translate(-0.14 0.2) rotate(-0.06)"/><rect class="cls-5" x="160.8" y="125.19" width="16.1" height="16.1" transform="translate(-0.14 0.17) rotate(-0.06)"/><rect class="cls-5" x="133.12" y="125.21" width="16.1" height="16.1" transform="translate(-0.14 0.14) rotate(-0.06)"/><rect class="cls-5" x="105.43" y="125.24" width="16.1" height="16.1" transform="translate(-0.14 0.12) rotate(-0.06)"/><rect class="cls-5" x="77.74" y="125.27" width="16.1" height="16.1" transform="translate(-0.14 0.09) rotate(-0.06)"/><rect class="cls-5" x="50.06" y="125.3" width="16.1" height="16.1" transform="translate(-0.14 0.06) rotate(-0.06)"/><rect class="cls-8" x="22.37" y="125.32" width="16.1" height="16.1" transform="translate(-0.14 0.03) rotate(-0.06)"/><rect class="cls-2" x="22.37" y="125.32" width="16.1" height="16.1" transform="translate(-0.14 0.03) rotate(-0.06)"/><rect class="cls-6" x="188.46" y="97.47" width="16.1" height="16.1" transform="translate(-0.11 0.2) rotate(-0.06)"/><rect class="cls-7" x="188.46" y="97.47" width="16.1" height="16.1" transform="translate(-0.11 0.2) rotate(-0.06)"/><rect class="cls-5" x="160.77" y="97.5" width="16.1" height="16.1" transform="translate(-0.11 0.17) rotate(-0.06)"/><rect class="cls-5" x="133.09" y="97.53" width="16.1" height="16.1" transform="translate(-0.11 0.14) rotate(-0.06)"/><rect class="cls-5" x="105.4" y="97.56" width="16.1" height="16.1" transform="translate(-0.11 0.12) rotate(-0.06)"/><rect class="cls-5" x="77.72" y="97.58" width="16.1" height="16.1" transform="translate(-0.11 0.09) rotate(-0.06)"/><rect class="cls-5" x="50.03" y="97.61" width="16.1" height="16.1" transform="translate(-0.11 0.06) rotate(-0.06)"/><rect class="cls-8" x="22.34" y="97.64" width="16.1" height="16.1" transform="matrix(1, 0, 0, 1, -0.11, 0.03)"/><rect class="cls-2" x="22.34" y="97.64" width="16.1" height="16.1" transform="matrix(1, 0, 0, 1, -0.11, 0.03)"/><rect class="cls-6" x="188.43" y="69.79" width="16.1" height="16.1" transform="translate(-0.08 0.2) rotate(-0.06)"/><rect class="cls-7" x="188.43" y="69.79" width="16.1" height="16.1" transform="translate(-0.08 0.2) rotate(-0.06)"/><rect class="cls-5" x="160.75" y="69.81" width="16.1" height="16.1" transform="translate(-0.08 0.17) rotate(-0.06)"/><rect class="cls-5" x="133.06" y="69.84" width="16.1" height="16.1" transform="translate(-0.08 0.14) rotate(-0.06)"/><rect class="cls-5" x="105.37" y="69.87" width="16.1" height="16.1" transform="translate(-0.08 0.12) rotate(-0.06)"/><rect class="cls-5" x="77.69" y="69.9" width="16.1" height="16.1" transform="translate(-0.08 0.09) rotate(-0.06)"/><rect class="cls-5" x="49.66" y="69.93" width="16.1" height="16.1" transform="translate(-0.08 0.06) rotate(-0.06)"/><path class="cls-4" d="M197.91,20.66A2.62,2.62,0,0,1,195.28,18V3.13a2.62,2.62,0,1,1,5.25,0l0,14.91a2.62,2.62,0,0,1-2.62,2.63"/></g></g></svg>