<svg enable-background="new 0 0 60 60" viewBox="0 0 60 60" xmlns="http://www.w3.org/2000/svg"><path d="m0 0h60v60h-60z" fill="#1aaa4b"/><path d="m25.6 42.1h-2.9l-.5-.5c-.7.4-1.6.7-2.6.7-2.9 0-4.5-1.4-4.5-3.4 0-1.5 1-2.4 1.9-2.8-.7-.6-.8-1.4-.8-1.8 0-1.6 1.3-2.7 3.4-2.7 1.9 0 3.3 1 3.3 2.7v.7h-2.5v-.5c0-.4-.3-.7-.7-.7s-.7.3-.7.7c0 .3.2.6.4.9l2.4 2.7v-1.5h2.2v1.6c0 .6-.1 1.4-.4 2zm-6-1.9c.5 0 .9-.2 1.1-.3-.4-.4-2.1-2.3-2.1-2.3-.3.2-.7.6-.7 1.2 0 1 1 1.4 1.7 1.4m26.1 15.2h3.3v-4.3h.3l2.1 4.3h3.9l-3-5.7 2.7-4.7h-3.6l-2.1 3.6h-.2v-3.6h-3.3v10.4zm9.8-9.8c0 .5.3.8.9.8.5 0 .9-.4.9-.8 0-.5-.3-.8-.9-.8-.5 0-.9.4-.9.8m1.6 0c0 .4-.2.7-.7.7-.4 0-.7-.3-.7-.7s.2-.7.7-.7c.4.1.7.4.7.7m-.6.4h.3l-.1-.2c.1 0 .1-.1.1-.2 0-.2-.1-.3-.3-.3h-.3v.7h.2v-.2zm-.2-.4v-.2h.1c.1 0 .1 0 .1.1s0 .1-.2.1zm-17.1 7.3c-1.1 0-1.6-.7-1.6-1.9v-1.7c0-1.1.5-1.9 1.6-1.9s1.6.8 1.6 1.5h3.1c-.1-2.3-1.7-4.3-4.6-4.3-3.4 0-5 1.9-5 4.7v1.4c0 2.8 1.6 4.7 5 4.7 2.9 0 4.6-1.9 4.6-4.2h-3.1c0 .9-.4 1.7-1.6 1.7m-15.9-2c0 2.8 1.7 4.8 5 4.8s5-1.9 5-4.8v-1.3c0-2.8-1.7-4.8-5-4.8-3.2 0-5 1.9-5 4.8zm6.6.2c0 1.2-.6 1.9-1.7 1.9s-1.7-.7-1.7-1.9v-1.7c0-1.2.6-1.9 1.7-1.9s1.7.7 1.7 1.9zm-14.9 4.3h7.5v-2.7h-4.2v-7.7h-3.3zm-10.5 0h5.5c2.4 0 3.7-1.2 3.7-3 0-1.3-.8-2.1-2-2.4.9-.4 1.4-1.3 1.4-2.3 0-1.6-1.1-2.7-3.1-2.7h-5.5zm3.1-6.3v-1.7h1.5c.5 0 .8.4.8.8 0 .5-.3.9-.8.9zm0 3.9v-1.7h2.2c.5 0 .8.4.8.9s-.3.9-.8.9h-2.2zm24.5-10.9h3.8l-2.1-3.3c1.1-.6 1.8-1.8 1.8-3.3 0-2.3-1.4-3.8-4.1-3.8h-5.2v10.4h3.3v-2.7h.9zm-2.5-5.3v-2.5h1.6c.8 0 1.2.5 1.2 1.3 0 .7-.4 1.2-1.2 1.2zm-25.1-5.1h3.3v3.7h2.7v-3.7h3.3v10.4h-3.3v-3.7h-2.7v3.7h-3.3z" fill="#fff"/></svg>