<svg id="Layer_1" data-name="Layer 1" xmlns="http://www.w3.org/2000/svg" viewBox="0 0 114.6 173.18"><defs><style>.cls-1{fill:#f1f0ed;}.cls-2{fill:#006241;}.cls-3{fill:#1a3c34;}.cls-4{fill:none;stroke:#1a3c34;stroke-linecap:round;stroke-miterlimit:10;stroke-width:0.68px;}</style></defs><path class="cls-1" d="M240.49,365.88c-1.1-11.38,23.24-27.32,54.87-30.36s58.56,8,59.65,19.34c.27,2.7-1,5.18-3.39,7.44l-1.41,129.75s-14.29,13.46-38.62,15.8-40.92-8.14-40.92-8.14L244.41,372a8.43,8.43,0,0,1-3.92-6.1" transform="translate(-240.45 -335.01)"/><path class="cls-2" d="M276,433.19a28.29,28.29,0,1,0,25.45-30.86A28.3,28.3,0,0,0,276,433.19" transform="translate(-240.45 -335.01)"/><path class="cls-3" d="M295.71,342.83c25.77-2.48,47.84,4.11,51.79,15a26,26,0,0,1-4.42,1.95,181.38,181.38,0,0,1-45.28,8.77,181.29,181.29,0,0,1-46.12,0,28,28,0,0,1-4-.85c1.5-11.51,22-22.36,48-24.86" transform="translate(-240.45 -335.01)"/><path class="cls-4" d="M247.65,367.4c-4.72-1.08-4.89-3.08-4.89-3.08m104.7-6.92c4.43-2,4.22-4,4.22-4M298.8,375.31c-37.19,3.58-48.44-1.2-48.44-1.2m48.44,1.2c37.19-3.58,47.31-10.42,47.31-10.42" transform="translate(-240.45 -335.01)"/><path class="cls-2" d="M312.15,367l-42.6-18.27a101.53,101.53,0,0,1,26.16-5.9c1.77-.17,3.53-.3,5.26-.38l28.69,21.18c-5.55,1.35-11.47,2.5-17.51,3.37" transform="translate(-240.45 -335.01)"/></svg>