<svg id="Layer_1" data-name="Layer 1" xmlns="http://www.w3.org/2000/svg" viewBox="0 0 84.82 162.27"><defs><style>.cls-1{fill:#1a3c34;}.cls-2{fill:#006241;}.cls-3{fill:#d3e8e2;}</style></defs><rect class="cls-1" x="7.12" y="43.44" width="161.62" height="83.55" transform="translate(-43.49 168.4) rotate(-89.55)"/><path class="cls-1" d="M56.43,85.2a39,39,0,0,0,64.13,30.06l.51-59.13A39,39,0,0,0,56.43,85.2Z" transform="translate(-45.52 -4.07)"/><path class="cls-2" d="M55,12.91,53.8,157.37l66.43.53.33-42.69a39,39,0,1,1,.51-59.08l.34-42.68Z" transform="translate(-45.52 -4.07)"/><path class="cls-1" d="M56.43,85.2a39,39,0,0,0,64.13,30.06l.51-59.13A39,39,0,0,0,56.43,85.2Z" transform="translate(-45.52 -4.07)"/><path class="cls-3" d="M115.56,86.53l-6.25.18a18.07,18.07,0,0,1-2.46,9.55l-4.18-1.36a16.67,16.67,0,0,0,2.41-9c-.13-4.4-2.77-7.32-6.31-7.17s-5.45,2.57-7.17,7.21c-2.31,6.39-5,10.33-10.43,10.51C76,96.59,72,93.08,70.93,87.38l-6.26.18-.11-3.84,6-.18a16.36,16.36,0,0,1,2-8.1l4.12,1.42a15,15,0,0,0-1.89,7.87c.13,4.76,3,6.48,5.5,6.43,3.23-.09,4.76-2.42,6.86-7.89,2.42-6.45,5.55-9.77,11.06-9.92,4.9-.13,9.58,3.14,10.81,9.5l6.45-.18Z" transform="translate(-45.52 -4.07)"/></svg>