<svg id="Layer_1" data-name="Layer 1" xmlns="http://www.w3.org/2000/svg" xmlns:xlink="http://www.w3.org/1999/xlink" viewBox="0 0 217.71 352.88"><defs><style>.cls-1,.cls-3,.cls-5{fill:none;}.cls-2{clip-path:url(#clip-path);}.cls-3{stroke:#d4e9e2;stroke-width:4.13px;}.cls-3,.cls-5{stroke-miterlimit:10;}.cls-4{fill:#1a3c34;}.cls-5{stroke:#1a3c34;stroke-width:0.68px;}.cls-6{fill:#006241;}</style><clipPath id="clip-path" transform="translate(-158.23 -294)"><rect class="cls-1" x="164.22" y="201.88" width="266.23" height="438.9" transform="translate(-25.35 19.08) rotate(-3.53)"/></clipPath></defs><g class="cls-2"><path class="cls-3" d="M206.76,644.74l149.45-12.82A19.37,19.37,0,0,0,373.8,611L348.3,313.72a19.38,19.38,0,0,0-20.89-17.59L178,309a19.37,19.37,0,0,0-17.59,20.89l25.5,297.31A19.36,19.36,0,0,0,206.76,644.74Z" transform="translate(-158.23 -294)"/><path class="cls-4" d="M206.76,644.74l149.45-12.82A19.37,19.37,0,0,0,373.8,611L348.3,313.72a19.38,19.38,0,0,0-20.89-17.59L178,309a19.37,19.37,0,0,0-17.59,20.89l25.5,297.31a19.36,19.36,0,0,0,20.89,17.59" transform="translate(-158.23 -294)"/><path class="cls-5" d="M206.76,644.74l149.45-12.82A19.37,19.37,0,0,0,373.8,611L348.3,313.72a19.38,19.38,0,0,0-20.89-17.59L178,309a19.37,19.37,0,0,0-17.59,20.89l25.5,297.31A19.36,19.36,0,0,0,206.76,644.74Z" transform="translate(-158.23 -294)"/><path class="cls-6" d="M193.84,322.33l31.9-2.74.8,9.26L282.93,324l-.79-9.26L314,312a16.68,16.68,0,0,1,18,15.15l23.35,272.22a16.68,16.68,0,0,1-15.15,18L220,627.69a16.66,16.66,0,0,1-18-15.15L178.69,340.32a16.68,16.68,0,0,1,15.15-18" transform="translate(-158.23 -294)"/></g></svg>