<svg id="Layer_1" data-name="Layer 1" xmlns="http://www.w3.org/2000/svg" viewBox="0 0 105.35 172.35"><defs><style>.cls-1{fill:#006241;}.cls-2{fill:#fff;}</style></defs><path class="cls-1" d="M60.3,193.45A7.53,7.53,0,0,0,67.79,201h86.89a10.87,10.87,0,0,0,10.84-10.9h0l.07-98H60.35Z" transform="translate(-60.3 -28.66)"/><path class="cls-2" d="M60.37,39.57A10.88,10.88,0,0,1,71.22,28.66h83.59a10.88,10.88,0,0,1,10.84,10.92h0V92.07H60.39V39.59" transform="translate(-60.3 -28.66)"/><path class="cls-1" d="M91.57,76.39A16.94,16.94,0,1,0,76.1,58.09v.12A16.88,16.88,0,0,0,91.57,76.39" transform="translate(-60.3 -28.66)"/></svg>